<svg width="296" height="160" viewBox="0 0 296 160" fill="none" xmlns="http://www.w3.org/2000/svg">
<path d="M15.9336 103.616C15.8382 103.682 13.547 104.566 10.0545 105.921C8.07902 106.687 6.40389 107.381 5.1633 107.669C4.08659 107.92 2.8836 108.393 1.80704 108.963C1.57125 109.088 1.33363 109.256 1.21295 109.447C0.767334 110.15 1.25723 111.311 1.65548 112.4C1.94568 113.194 2.61451 113.885 3.36102 114.444C4.06217 114.969 5.87607 114.271 9.1273 112.264C11.8249 110.598 15.1676 108.382 16.1216 108.005C16.9054 107.696 18.0881 107.137 19.325 106.851C20.6132 106.553 22.3809 106.014 24.3608 105.248C25.3799 104.854 26.5466 104.48 28.3085 103.828C29.4286 103.414 30.5967 103.31 33.6625 102.431C35.6601 101.859 36.7593 101.678 38.5942 100.975C40.2346 100.348 41.9221 99.738 43.2205 99.1917C45.4743 98.2434 46.2249 97.3892 48.8812 96.0766C50.0955 95.4765 50.8055 94.9181 51.3368 94.656C51.8629 94.3964 54.1462 93.3768 57.7575 92.0453C61.7345 90.5791 63.6133 90.0927 66.0613 89.1424C67.4709 88.5953 68.4351 88.175 71.544 86.7971C73.5433 85.911 75.4005 85.3337 79.7312 83.6093C81.5332 82.8918 83.4352 82.3942 85.2941 81.714C87.705 80.8319 89.2422 80.6521 90.4424 80.2129C91.656 79.7688 93.4489 79.3002 94.7214 78.9571C95.7023 78.6927 97.1979 78.4134 98.4212 78.1045C100.172 77.6626 103.019 76.8032 104.406 76.2716C105.619 75.8071 107.321 75.1743 109.048 74.512C110.526 73.9448 111.316 73.4013 114.121 72.1993C115.997 71.3955 117.278 70.7591 118.014 70.4255C118.795 70.0716 119.924 69.6322 121.445 68.9346C122.897 68.2681 123.946 67.6942 124.828 67.2627C125.986 66.6956 127.439 66.34 128.302 66.1353C129.133 65.9383 129.979 66.7941 130.663 67.4675C130.832 67.6335 130.884 67.886 130.859 68.1565C130.754 69.2792 129.713 69.9971 128.838 71.108C128.186 71.9356 128.159 73.0125 128.282 73.8622C128.413 74.767 128.299 75.7868 128.43 76.5934C128.591 77.5865 128.599 78.3768 128.778 79.5077C128.989 80.847 129.45 82.3749 129.935 83.7927C130.987 86.8657 131.589 87.917 131.864 88.8789C132.173 89.9636 132.406 90.9402 132.702 91.8833C133.058 93.0126 132.661 95.206 132.419 96.4593C132.178 97.7093 131.727 98.8054 131.743 100.729C131.751 101.749 132.215 102.695 132.648 103.577L132.65 103.581C132.899 104.088 134.219 106.092 136.114 108.968C137.569 111.176 137.151 112.254 136.96 113.57C136.702 115.347 136.083 117.08 135.673 118.559C135.253 120.075 135.137 120.976 134.871 121.88C134.548 122.979 134.897 125.147 135.727 127.843C135.964 128.61 136.4 129.068 137.213 130.39C139.032 133.35 140.515 135.391 140.584 135.951C140.735 137.176 140.512 138.261 140.67 139.622C140.777 140.542 141.184 141.595 143.184 144.319C144.592 146.238 146.006 146.063 146.994 146.096C147.936 146.128 148.953 146.595 149.79 146.769C150.565 146.931 151.37 147.496 152.162 147.916C153.025 148.373 153.891 148.756 154.732 149.141C155.602 149.54 157.182 149.691 159.104 149.722C160.38 149.743 161.353 150.021 165.517 152.311C166.807 153.02 167.651 154.03 168.994 155.242C171.704 157.686 172.825 158.688 173.994 158.88C175.126 159.066 175.998 158.562 176.906 158.037L176.937 158.019C177.638 157.614 178.495 157.687 179.449 157.311C180.298 156.975 181.212 156.657 182.451 156.689C183.518 156.717 184.496 156.951 185.32 157.313C185.516 157.398 185.714 157.468 185.903 157.482C187.984 157.635 190.67 154.312 191.706 153.695C193.352 152.715 195.026 153.786 196.366 153.859C196.872 153.886 197.379 153.873 197.937 153.701C198.654 153.48 198.789 152.607 199.077 152.406C199.758 151.929 200.587 152.93 201.272 153.244C202.012 153.585 202.401 152.249 203.408 151.437C204.204 151.134 204.738 150.977 205.094 150.873C205.273 150.82 205.45 150.768 205.776 150.614M205.95 150.458C207.538 149.597 208.484 149.1 209.405 148.785C210.283 148.484 211.526 148.687 212.625 148.982C213.467 149.207 214.787 149.184 216.114 148.753C217.037 148.452 218.414 147.641 219.217 146.799C219.868 146.117 219.937 145.039 220.645 143.611C221.46 141.967 224.698 140.495 226.657 139.949C227.807 139.629 228.842 139.652 229.767 139.291C230.904 138.847 232.093 137.799 232.603 136.955C233.374 135.678 233.474 134.07 234.655 133.205C235.448 132.625 236.661 132.823 237.706 132.748C239.044 132.651 240.419 132.16 241.267 131.979C242.137 131.793 242.781 131.009 244.093 129.405C244.864 128.464 245.812 127.679 246.773 126.725C248.524 124.986 249.547 124.997 250.299 124.677C251.04 124.36 252.295 124.056 253.517 123.94C255.028 123.797 256.108 122.305 256.656 121.515C256.949 121.092 258.038 120.308 260.282 118.948C263.396 117.06 265.849 116.253 266.61 116.008C268.676 115.342 270.783 113.552 271.85 112.932C273.042 112.24 273.982 111.974 274.791 111.617C275.67 111.23 276.64 110.778 277.922 110.292C279.303 109.767 280.704 108.926 282.826 108.137C284.537 107.502 286.191 107.138 287.788 106.638C289.11 106.224 290.011 105.865 290.79 105.526C291.801 105.085 292.775 104.591 293.809 104.157C294.573 103.836 295.023 103.273 295.255 102.909C295.726 102.171 295.047 100.745 294.662 99.6633C294.279 98.5887 292.523 98.509 291.641 98.3476C290.711 98.1772 289.827 97.7832 288.956 97.2887C288.019 96.7564 287.324 95.7036 286.53 94.9103C285.414 93.7964 284.28 91.7986 283.018 90.0389C282.186 88.8805 280.549 89.109 279.45 89.2186C277.738 89.3893 276.673 90.1762 271.235 93.7545C269.157 95.1223 267.313 95.9582 265.57 96.1965C264.66 96.3208 263.615 96.0112 262.642 95.8367C262.21 95.7593 262.009 95.3444 261.963 95.0471C261.799 93.9959 262.662 93.2623 263.434 92.6053L263.504 92.5458C264.567 91.6394 265.89 89.8712 266.995 88.5309C267.806 87.5475 269.403 86.5278 270.407 85.5061C271.009 84.8925 271.321 84.1364 271.597 83.661C272.17 82.6744 271.344 81.6038 270.496 80.3235C269.952 79.5024 268.747 79.2628 267.652 78.6819C265.767 77.6809 264.871 76.0296 264.35 74.8762C263.888 73.8525 264.382 72.5377 264.469 70.9716C264.545 69.5904 264.493 68.1508 264.439 66.964C264.378 65.6058 263.882 64.588 263.33 63.3858C262.479 61.5322 260.265 60.4328 259.046 59.6153C257.965 58.8898 257.444 58.247 256.764 57.2156C256.53 56.8609 256.974 56.2948 256.969 55.6487C256.956 53.6727 254.146 49.9064 253.704 48.1578C253.486 47.2952 253.67 45.8137 253.891 44.0417L253.907 43.9099C254.083 42.5012 254.273 41.5786 254.211 40.7273C254.142 39.7847 253.321 38.1065 252.118 36.8986C250.736 35.5112 249.275 35.7825 248.407 35.412C246.94 34.7865 245.332 34.5436 244.24 34.2032C243.134 33.8585 242.383 33.3406 241.583 32.7188C240.231 31.6682 240.648 30.1552 240.626 28.7874C240.618 28.2643 240.432 27.8625 240.267 27.4503C239.685 25.9992 236.411 26.2703 235.099 25.9628C233.738 25.6436 232.963 25.1699 232.522 24.8278C231.028 23.6699 232.203 20.0076 232.077 18.8321C231.969 17.8242 230.742 16.153 229.407 15.1614C227.318 13.6098 226.243 13.4167 224.375 11.0235C223.258 9.59399 220.916 9.71976 219.869 9.26823C218.755 8.78746 216.314 8.45657 214.593 7.97875C213.873 7.77893 213.321 7.43703 212.891 7.16885C211.926 6.56657 212.48 4.61298 212.811 3.1564C212.869 2.90032 212.775 2.69433 212.534 2.57669C210.71 1.68719 208.186 3.19857 206.803 3.716C205.518 4.19645 204.342 4.08754 203.592 3.71485C202.852 3.3469 202.405 2.59029 201.265 2.00058C200.361 1.53245 199.173 0.856262 197.763 0.694091C196.307 0.526606 195.593 1.30725 194.512 2.138C192.778 3.46998 192.95 4.85089 192.034 5.57362C191.167 6.25811 189.188 4.80339 187.834 4.14746L187.804 4.13275C186.818 3.65565 185.863 3.19299 184.787 2.97211C183.722 2.75355 182.54 3.64168 179.57 5.30102C175.568 7.53724 174.375 7.53263 173.048 8.53452C172.429 9.00174 172.665 9.858 172.266 10.5011C170.809 12.8555 167.274 12.5674 165.352 13.0391C163.761 13.4292 163.901 14.9788 163.617 15.9106C163.287 16.9963 161.376 18.2048 159.922 18.9337C158.947 19.4224 157.722 19.611 155.693 20.2518C154.966 20.4815 154.407 20.4535 153.939 20.5355C152.839 20.728 152.917 22.6232 152.798 23.965C152.679 25.311 152.667 26.4602 152.449 27.0186C152.099 27.9134 150.024 29.2782 145.737 31.0471C144.845 31.415 144.413 31.7191 144.139 32.031C143.294 32.9905 143.648 34.3605 143.788 35.3237C143.95 36.44 143.021 39.2634 142.184 40.9973C141.4 42.6247 137.501 44.584 135.648 46.2369C134.787 47.0052 135.528 48.798 135.558 49.8375C135.594 51.0928 134.419 52.9037 133.693 54.1472C132.97 55.3846 132.543 56.1665 131.956 56.7812C131.181 57.5935 130.466 58.4271 129.376 59.4717C126.221 62.4935 124.823 62.4375 123.935 62.8533C122.634 63.4618 121.601 63.8701 120.771 64.0788C119.989 64.2755 119.176 64.5815 118.346 64.7902C117.564 64.987 116.751 65.293 114.32 65.928C112.774 66.3318 111.862 66.6601 110.848 67.2422C109.883 67.7966 109.01 68.1567 108.023 68.7201C107.143 69.2226 106.05 69.7287 105.185 70.005C104.359 70.3344 103.72 70.6988 103.336 70.8442C103.151 70.931 102.989 71.0439 102.822 71.1603M103.469 70.9466C101.328 71.6642 99.9398 72.1899 97.076 73.1359C95.4245 73.6814 94.008 74.1113 92.0963 74.6117C89.9831 75.1649 87.627 76.0139 84.4951 76.9758C82.6405 77.5454 80.37 78.0822 78.5457 78.4091C76.8291 78.7167 74.6976 79.5977 72.4275 80.2928C70.6168 80.8473 69.3404 81.5566 67.7787 81.9261C66.1852 82.3031 64.8552 83.0213 63.3834 83.6032C61.995 84.1521 60.846 84.7047 59.7999 85.1031C58.6501 85.5409 57.3836 85.9016 56.1922 86.5634C54.9527 87.252 53.6015 87.4271 52.295 88.0066C50.8715 88.6381 48.7239 89.2775 47.0418 89.9511C45.5507 90.5483 44.3367 90.8927 43.0692 91.4451C41.7006 92.0416 40.1354 92.6038 38.874 93.094C37.5608 93.6043 36.4016 94.2083 34.8039 95.1529C33.2589 96.0663 31.7819 96.4293 30.5515 97.1183C29.5441 97.6824 28.3549 98.1517 26.7006 98.8606C24.8932 99.6352 23.8064 100.323 22.6964 100.708C21.4494 101.14 20.4023 101.917 19.3061 102.405C18.306 102.85 17.2422 103.235 16.2722 103.742C15.7513 103.941 15.1997 104.103 14.6524 104.263C14.3766 104.344 14.105 104.424 13.6697 104.283" stroke="black" stroke-linecap="round"/>
</svg>
